<?xml version="1.0" standalone="no"?>
<!DOCTYPE svg PUBLIC "-//W3C//DTD SVG 20010904//EN"
 "http://www.w3.org/TR/2001/REC-SVG-20010904/DTD/svg10.dtd">
<svg version="1.0" xmlns="http://www.w3.org/2000/svg"
 width="512.000000pt" height="512.000000pt" viewBox="0 0 512.000000 512.000000"
 preserveAspectRatio="xMidYMid meet">

<g transform="translate(0.000000,512.000000) scale(0.100000,-0.100000)"
fill="#000000" stroke="none">
<path d="M1194 4296 c-52 -23 -64 -50 -64 -143 0 -220 78 -507 187 -686 100
-166 243 -300 403 -380 l85 -42 -61 -58 -62 -57 -392 0 -392 0 -34 -34 c-24
-24 -34 -43 -34 -66 0 -40 26 -85 57 -99 16 -7 135 -11 342 -11 l319 0 -19
-61 c-10 -33 -19 -74 -19 -90 l0 -29 -306 0 -306 0 -34 -34 c-47 -47 -47 -95
0 -142 l34 -34 315 0 315 0 17 -49 c18 -54 82 -160 123 -203 14 -15 24 -29 21
-31 -2 -3 -29 -16 -59 -31 -326 -162 -522 -478 -532 -857 -3 -100 11 -131 69
-155 27 -12 42 -13 69 -4 56 19 71 51 83 180 18 193 60 310 157 439 78 104
209 196 348 245 l67 23 82 -41 c351 -176 798 -179 1160 -8 l99 46 70 -24 c142
-48 299 -169 375 -288 76 -119 109 -225 123 -395 10 -122 23 -151 76 -173 58
-24 114 0 140 63 11 26 12 55 4 146 -22 251 -115 461 -277 623 -68 68 -196
159 -273 193 l-41 18 41 49 c41 49 120 194 120 220 0 12 54 14 319 14 l319 0
31 31 c25 25 31 39 31 74 0 35 -6 49 -31 74 l-30 31 -306 2 -306 3 -13 65 c-8
36 -18 75 -24 88 l-10 22 329 0 329 0 31 31 c25 25 31 39 31 74 0 35 -6 49
-31 74 l-31 31 -395 0 -396 0 -62 59 -61 59 53 22 c72 30 185 105 256 169 175
161 304 425 352 721 21 130 20 268 -1 299 -22 31 -77 53 -112 45 -62 -15 -92
-71 -92 -174 0 -30 -7 -93 -15 -139 -78 -443 -294 -700 -652 -777 -68 -14 -86
-15 -112 -4 l-31 12 19 27 c61 86 91 183 91 293 0 82 -19 153 -51 198 -20 26
-20 26 2 75 46 104 15 281 -63 359 -36 36 -41 38 -85 33 -88 -10 -116 -81 -72
-184 22 -52 27 -116 11 -136 -8 -9 -71 -12 -254 -12 l-243 1 -14 28 c-12 25
-11 35 9 90 42 118 39 165 -13 196 -17 11 -47 20 -66 20 -108 0 -193 -256
-132 -395 l20 -46 -31 -57 c-28 -49 -33 -67 -36 -147 -5 -108 18 -199 72 -285
19 -30 31 -59 27 -63 -35 -35 -196 -2 -341 70 -79 39 -109 61 -180 132 -56 56
-100 113 -129 165 -83 147 -150 390 -152 551 0 33 -5 75 -12 94 -21 61 -87 92
-143 67z m1494 -1310 c236 -63 396 -271 395 -511 -3 -388 -404 -640 -753 -471
-94 45 -199 152 -245 248 -72 151 -70 307 6 458 65 129 179 227 318 271 69 22
205 24 279 5z"/>
<path d="M2455 2716 c-98 -45 -155 -129 -156 -228 -1 -82 16 -131 67 -187 52
-57 126 -91 202 -91 83 0 188 65 227 140 21 41 37 119 30 151 -6 25 -9 26 -41
19 -65 -15 -138 21 -170 82 -16 30 -21 108 -9 128 13 21 -98 11 -150 -14z"/>
</g>
</svg>
